<svg version="1.1" id="Layer_1" xmlns="http://www.w3.org/2000/svg" xmlns:xlink="http://www.w3.org/1999/xlink" x="0px" y="0px"
	 width="100%" viewBox="0 0 875 892" enable-background="new 0 0 875 892" xml:space="preserve">
<path fill="#000000" opacity="1.000000" stroke="none" 
	d="
M875.000000,893.000000 
	C584.303955,893.000000 293.607941,893.000000 2.455877,892.544067 
	C1.999814,598.247620 1.999502,304.407104 2.003657,10.566569 
	C2.003697,7.735388 2.062819,4.904208 2.556981,2.061552 
	C5.852594,2.033340 8.685585,2.001967 11.518576,2.001945 
	C295.331726,1.999708 579.144897,1.999732 862.958069,2.000205 
	C874.997437,2.000225 874.999634,2.002795 874.999634,14.062452 
	C875.000061,307.041626 875.000000,600.020813 875.000000,893.000000 
M152.145203,433.614746 
	C145.291565,461.927399 138.398819,490.230774 131.702652,518.580627 
	C131.376297,519.962219 132.286911,522.435669 133.437012,523.252502 
	C223.728592,587.385376 314.101776,651.403381 404.468994,715.429749 
	C415.969360,723.577881 427.470734,731.724609 438.833405,739.773987 
	C540.325867,667.869080 641.410950,596.219849 742.590454,524.704285 
	C746.197021,522.155090 746.439331,519.738647 745.504639,515.914795 
	C733.337219,466.134430 721.305237,416.320984 709.233337,366.517273 
	C703.201111,341.630798 697.155029,316.747681 691.118835,291.862183 
	C685.796875,269.921112 680.477173,247.979507 675.161133,226.037048 
	C669.876892,204.226089 664.604675,182.412231 659.307129,160.604507 
	C658.808533,158.551758 658.166626,156.533813 657.529297,154.280701 
	C655.305298,154.763184 653.521240,155.089981 651.768555,155.539185 
	C582.430847,173.309143 513.103638,191.119995 443.735565,208.770432 
	C440.683838,209.546921 437.089905,209.547180 434.038330,208.770462 
	C367.089417,191.730377 300.182556,174.525040 233.263519,157.367523 
	C228.978287,156.268814 224.659515,155.300812 220.195160,154.233459 
	C219.680344,155.888535 219.280930,156.963913 219.011185,158.070892 
	C214.289658,177.448227 209.571884,196.826508 204.877869,216.210526 
	C198.867737,241.029312 192.934860,265.866974 186.864212,290.670929 
	C182.038101,310.389893 176.949142,330.044739 172.167252,349.774231 
	C165.463959,377.431122 158.937378,405.130829 152.145203,433.614746 
z"/>
<path fill="#0F0F0F" opacity="1.000000" stroke="none" 
	d="
M875.500000,893.000000 
	C875.000000,600.020813 875.000061,307.041626 874.999634,14.062452 
	C874.999634,2.002795 874.997437,2.000225 862.958069,2.000205 
	C579.144897,1.999732 295.331726,1.999708 11.518576,2.001945 
	C8.685585,2.001967 5.852594,2.033340 2.532499,1.792825 
	C2.030263,1.357050 2.015131,1.178525 2.000000,1.000000 
	C293.333344,1.000000 584.666687,1.000000 876.000000,1.000000 
	C876.000000,298.333344 876.000000,595.666687 875.500000,893.000000 
z"/>
<path fill="#1E1E1E" opacity="1.000000" stroke="none" 
	d="
M1.500000,1.000000 
	C2.015131,1.178525 2.030263,1.357050 2.069876,1.804301 
	C2.062819,4.904208 2.003697,7.735388 2.003657,10.566569 
	C1.999502,304.407104 1.999814,598.247620 1.999927,892.544067 
	C1.666669,892.833313 1.056203,892.684082 1.044458,892.497192 
	C0.960999,891.169128 1.000000,889.833313 1.000000,888.500000 
	C1.000000,592.666687 1.000000,296.833344 1.500000,1.000000 
z"/>
<path fill="#991D2F" opacity="1.000000" stroke="none" 
	d="
M152.240204,433.213501 
	C158.937378,405.130829 165.463959,377.431122 172.167252,349.774231 
	C176.949142,330.044739 182.038101,310.389893 186.864212,290.670929 
	C192.934860,265.866974 198.867737,241.029312 204.877869,216.210526 
	C209.571884,196.826508 214.289658,177.448227 219.011185,158.070892 
	C219.280930,156.963913 219.680344,155.888535 220.195160,154.233459 
	C224.659515,155.300812 228.978287,156.268814 233.263519,157.367523 
	C300.182556,174.525040 367.089417,191.730377 434.038330,208.770462 
	C437.089905,209.547180 440.683838,209.546921 443.735565,208.770432 
	C513.103638,191.119995 582.430847,173.309143 651.768555,155.539185 
	C653.521240,155.089981 655.305298,154.763184 657.529297,154.280701 
	C658.166626,156.533813 658.808533,158.551758 659.307129,160.604507 
	C664.604675,182.412231 669.876892,204.226089 675.161133,226.037048 
	C680.477173,247.979507 685.796875,269.921112 691.118835,291.862183 
	C697.155029,316.747681 703.201111,341.630798 709.233337,366.517273 
	C721.305237,416.320984 733.337219,466.134430 745.504639,515.914795 
	C746.439331,519.738647 746.197021,522.155090 742.590454,524.704285 
	C641.410950,596.219849 540.325867,667.869080 438.833405,739.773987 
	C427.470734,731.724609 415.969360,723.577881 404.468994,715.429749 
	C314.101776,651.403381 223.728592,587.385376 133.437012,523.252502 
	C132.286911,522.435669 131.376297,519.962219 131.702652,518.580627 
	C138.398819,490.230774 145.291565,461.927399 152.240204,433.213501 
M357.203094,249.262192 
	C327.523254,241.680908 297.827026,234.162521 268.182678,226.445007 
	C264.116913,225.386551 262.171753,225.925003 261.255035,230.401855 
	C259.423981,239.343765 257.081665,248.181473 254.926682,257.056427 
	C252.270966,267.993683 249.591034,278.925049 246.843597,290.178345 
	C249.258865,290.937317 251.132187,291.566101 253.028427,292.115906 
	C297.478577,305.004028 341.920502,317.921021 386.404327,330.691956 
	C389.870056,331.686951 391.630005,333.183044 392.375153,336.866394 
	C395.038269,350.030579 398.086243,363.116913 400.987122,376.233063 
	C404.994263,394.351044 409.082306,412.451843 412.935211,430.602570 
	C413.685608,434.137512 415.641113,435.573761 418.693665,437.213440 
	C432.170624,444.452454 445.394348,444.946930 458.735931,437.153687 
	C459.157867,436.907227 459.668579,436.794983 460.151337,436.673309 
	C464.051331,435.690186 466.057861,433.264435 467.330963,429.332275 
	C473.431824,410.488739 480.043823,391.809937 486.072784,372.944305 
	C487.627289,368.080078 490.162750,365.820984 495.032593,364.430176 
	C541.298645,351.217316 587.472900,337.682892 633.728333,324.432281 
	C637.757019,323.278168 638.561340,321.827515 637.569214,317.831604 
	C630.387512,288.906494 623.321106,259.951019 616.539856,230.929993 
	C615.421021,226.141724 613.876160,225.289825 609.182678,226.505630 
	C553.899536,240.826248 498.566772,254.955811 443.210480,268.991364 
	C440.462280,269.688202 437.232605,269.644135 434.472961,268.957245 
	C408.946045,262.603333 383.473206,256.031982 357.203094,249.262192 
M357.845215,450.678101 
	C353.127716,429.316315 348.238159,407.990112 343.808685,386.568756 
	C342.640900,380.921265 340.489105,377.839142 334.543365,376.189667 
	C302.308716,367.246948 270.214325,357.798920 238.064636,348.549286 
	C236.546173,348.112427 234.961136,347.906982 233.186844,347.549377 
	C232.614655,349.658997 232.147385,351.239594 231.757935,352.839172 
	C226.489029,374.479980 221.219559,396.120667 215.973145,417.766937 
	C209.915070,442.761963 203.950882,467.780182 197.745575,492.738556 
	C196.956863,495.910858 197.693115,497.481171 200.247971,499.282440 
	C231.546738,521.349487 262.792480,543.492249 293.959808,565.744446 
	C296.855194,567.811584 298.885529,567.750916 301.862000,565.896362 
	C330.406555,548.111328 359.059143,530.499756 387.668976,512.819336 
	C395.716339,507.846191 403.724792,502.810028 412.530823,497.316315 
	C410.089600,496.266846 408.488831,495.500977 406.833862,494.879517 
	C394.212006,490.140045 381.608856,485.347870 368.931305,480.761627 
	C365.461792,479.506470 363.540894,477.703552 362.876099,473.834595 
	C361.587128,466.333038 359.669464,458.939484 357.845215,450.678101 
M651.856506,517.363831 
	C659.872131,511.683868 667.751343,505.795776 675.962708,500.414459 
	C679.886719,497.842804 680.522644,495.017151 679.459351,490.762756 
	C674.712402,471.769012 670.183777,452.720673 665.580627,433.691010 
	C663.005310,423.044189 660.455200,412.391174 657.861816,401.748749 
	C656.106934,394.547211 654.296631,387.359192 652.453186,379.931732 
	C650.671265,380.330109 649.543823,380.519501 648.452881,380.835052 
	C611.520935,391.516998 574.573120,402.145782 537.712280,413.068176 
	C535.542236,413.711182 533.213379,416.431702 532.420654,418.697083 
	C525.931885,437.240417 519.738708,455.888275 513.590576,474.548828 
	C512.458862,477.983948 510.744537,480.227692 507.098663,481.336823 
	C502.014496,482.883392 497.106018,485.007629 492.122589,486.885284 
	C483.461273,490.148712 474.800140,493.412659 465.316345,496.986298 
	C467.142944,498.360535 468.096191,499.202545 469.162445,499.861755 
	C504.849487,521.924561 540.572632,543.929321 576.196411,566.093628 
	C579.111023,567.907043 580.954773,567.708740 583.653137,565.776550 
	C606.125854,549.685486 628.715149,533.757446 651.856506,517.363831 
M420.335938,655.156067 
	C425.214355,658.635071 430.190765,661.986938 434.933685,665.641846 
	C437.686920,667.763489 439.657227,667.865417 442.686584,665.693665 
	C469.878418,646.199768 497.228333,626.926392 524.518494,607.569519 
	C525.540283,606.844788 526.426453,605.928894 527.593933,604.912170 
	C526.606812,604.143066 526.011230,603.583374 525.330139,603.162109 
	C497.443726,585.916687 469.519897,568.731323 441.702576,551.375305 
	C438.921204,549.639954 437.196747,550.687805 435.015228,552.037231 
	C412.792236,565.784302 390.534790,579.475647 368.303619,593.209473 
	C362.268799,596.937622 356.290039,600.756470 349.548615,604.997192 
	C373.400635,621.905884 396.571472,638.331665 420.335938,655.156067 
z"/>
<path fill="#000000" opacity="1.000000" stroke="none" 
	d="
M357.593872,249.393005 
	C383.473206,256.031982 408.946045,262.603333 434.472961,268.957245 
	C437.232605,269.644135 440.462280,269.688202 443.210480,268.991364 
	C498.566772,254.955811 553.899536,240.826248 609.182678,226.505630 
	C613.876160,225.289825 615.421021,226.141724 616.539856,230.929993 
	C623.321106,259.951019 630.387512,288.906494 637.569214,317.831604 
	C638.561340,321.827515 637.757019,323.278168 633.728333,324.432281 
	C587.472900,337.682892 541.298645,351.217316 495.032593,364.430176 
	C490.162750,365.820984 487.627289,368.080078 486.072784,372.944305 
	C480.043823,391.809937 473.431824,410.488739 467.330963,429.332275 
	C466.057861,433.264435 464.051331,435.690186 460.151337,436.673309 
	C459.668579,436.794983 459.157867,436.907227 458.735931,437.153687 
	C445.394348,444.946930 432.170624,444.452454 418.693665,437.213440 
	C415.641113,435.573761 413.685608,434.137512 412.935211,430.602570 
	C409.082306,412.451843 404.994263,394.351044 400.987122,376.233063 
	C398.086243,363.116913 395.038269,350.030579 392.375153,336.866394 
	C391.630005,333.183044 389.870056,331.686951 386.404327,330.691956 
	C341.920502,317.921021 297.478577,305.004028 253.028427,292.115906 
	C251.132187,291.566101 249.258865,290.937317 246.843597,290.178345 
	C249.591034,278.925049 252.270966,267.993683 254.926682,257.056427 
	C257.081665,248.181473 259.423981,239.343765 261.255035,230.401855 
	C262.171753,225.925003 264.116913,225.386551 268.182678,226.445007 
	C297.827026,234.162521 327.523254,241.680908 357.593872,249.393005 
z"/>
<path fill="#000000" opacity="1.000000" stroke="none" 
	d="
M357.928772,451.089661 
	C359.669464,458.939484 361.587128,466.333038 362.876099,473.834595 
	C363.540894,477.703552 365.461792,479.506470 368.931305,480.761627 
	C381.608856,485.347870 394.212006,490.140045 406.833862,494.879517 
	C408.488831,495.500977 410.089600,496.266846 412.530823,497.316315 
	C403.724792,502.810028 395.716339,507.846191 387.668976,512.819336 
	C359.059143,530.499756 330.406555,548.111328 301.862000,565.896362 
	C298.885529,567.750916 296.855194,567.811584 293.959808,565.744446 
	C262.792480,543.492249 231.546738,521.349487 200.247971,499.282440 
	C197.693115,497.481171 196.956863,495.910858 197.745575,492.738556 
	C203.950882,467.780182 209.915070,442.761963 215.973145,417.766937 
	C221.219559,396.120667 226.489029,374.479980 231.757935,352.839172 
	C232.147385,351.239594 232.614655,349.658997 233.186844,347.549377 
	C234.961136,347.906982 236.546173,348.112427 238.064636,348.549286 
	C270.214325,357.798920 302.308716,367.246948 334.543365,376.189667 
	C340.489105,377.839142 342.640900,380.921265 343.808685,386.568756 
	C348.238159,407.990112 353.127716,429.316315 357.928772,451.089661 
z"/>
<path fill="#000000" opacity="1.000000" stroke="none" 
	d="
M651.562866,517.572021 
	C628.715149,533.757446 606.125854,549.685486 583.653137,565.776550 
	C580.954773,567.708740 579.111023,567.907043 576.196411,566.093628 
	C540.572632,543.929321 504.849487,521.924561 469.162445,499.861755 
	C468.096191,499.202545 467.142944,498.360535 465.316345,496.986298 
	C474.800140,493.412659 483.461273,490.148712 492.122589,486.885284 
	C497.106018,485.007629 502.014496,482.883392 507.098663,481.336823 
	C510.744537,480.227692 512.458862,477.983948 513.590576,474.548828 
	C519.738708,455.888275 525.931885,437.240417 532.420654,418.697083 
	C533.213379,416.431702 535.542236,413.711182 537.712280,413.068176 
	C574.573120,402.145782 611.520935,391.516998 648.452881,380.835052 
	C649.543823,380.519501 650.671265,380.330109 652.453186,379.931732 
	C654.296631,387.359192 656.106934,394.547211 657.861816,401.748749 
	C660.455200,412.391174 663.005310,423.044189 665.580627,433.691010 
	C670.183777,452.720673 674.712402,471.769012 679.459351,490.762756 
	C680.522644,495.017151 679.886719,497.842804 675.962708,500.414459 
	C667.751343,505.795776 659.872131,511.683868 651.562866,517.572021 
z"/>
<path fill="#010000" opacity="1.000000" stroke="none" 
	d="
M420.039124,654.956726 
	C396.571472,638.331665 373.400635,621.905884 349.548615,604.997192 
	C356.290039,600.756470 362.268799,596.937622 368.303619,593.209473 
	C390.534790,579.475647 412.792236,565.784302 435.015228,552.037231 
	C437.196747,550.687805 438.921204,549.639954 441.702576,551.375305 
	C469.519897,568.731323 497.443726,585.916687 525.330139,603.162109 
	C526.011230,603.583374 526.606812,604.143066 527.593933,604.912170 
	C526.426453,605.928894 525.540283,606.844788 524.518494,607.569519 
	C497.228333,626.926392 469.878418,646.199768 442.686584,665.693665 
	C439.657227,667.865417 437.686920,667.763489 434.933685,665.641846 
	C430.190765,661.986938 425.214355,658.635071 420.039124,654.956726 
z"/>
</svg>